<svg width="800" height="600" xmlns="http://www.w3.org/2000/svg">

 <g>
  <title>Layer 1</title>
  <rect id="svg_3" height="310" width="328" y="213" x="232" stroke="#000" fill="#845335"/>
  <path id="svg_4" d="m229.855,212.10812l166.49999,-165.00001l166.49999,165.00001l-332.99998,0z" stroke="#000" fill="#4D2425"/>
  <rect id="svg_5" height="59" width="38" y="134" x="261" stroke="#000" fill="#666666"/>
  
  <path id="svg_7" d="m214.49002,118.22255l-22.19254,8.82768l0,-17.64597l22.19254,8.81828zm-16.11366,-43.48504l-10.11045,23.79432l-11.15723,-12.48473l21.26768,-11.30959zm-38.88634,-18.00791l7.89077,24.81905l-15.78575,0l7.89498,-24.81905zm-38.89054,18.00791l21.27608,11.30959l-11.16143,12.48473l-10.11465,-23.79432zm-16.10945,43.48504l22.19674,-8.81828l0,17.64597l-22.19674,-8.82768zm16.10945,43.48504l10.11465,-23.78492l11.16143,12.48003l-21.27608,11.30489l0,0zm38.89054,18.02201l-7.89498,-24.82375l15.78575,0l-7.89077,24.82375zm38.88634,-18.02201l-21.27188,-11.30019l11.15723,-12.48003l10.11465,23.78022zm-66.38424,-43.48504l0,0c0,-16.97848 12.31331,-30.74647 27.5021,-30.74647c15.18459,0 27.5021,13.76799 27.5021,30.74647c0,16.98318 -12.31751,30.75117 -27.5021,30.75117c-15.193,0 -27.5021,-13.76799 -27.5021,-30.75117l0,0z" stroke="#000" fill="#E6C36A"/>
  <rect id="svg_8" height="119" width="108" y="320" x="414" stroke="#000" fill="#33666C"/>
  <line id="svg_9" y2="438" x2="465" y1="321" x1="464" stroke="#000" fill="none"/>
  <line id="svg_10" y2="380" x2="526" y1="379" x1="415" stroke="#000" fill="none"/>
 </g>
</svg>